<!DOCTYPE svg PUBLIC "-//W3C//DTD SVG 1.1//EN" "http://www.w3.org/Graphics/SVG/1.1/DTD/svg11.dtd">
<!-- Uploaded to: SVG Repo, www.svgrepo.com, Transformed by: SVG Repo Mixer Tools -->
<svg fill="#000000" width="800px" height="800px" viewBox="0 0 24 24" id="sound-max" data-name="Flat Line" xmlns="http://www.w3.org/2000/svg" class="icon flat-line">
<g id="SVGRepo_bgCarrier" stroke-width="0"/>
<g id="SVGRepo_tracerCarrier" stroke-linecap="round" stroke-linejoin="round"/>
<g id="SVGRepo_iconCarrier">
<path id="secondary" d="M11,5V19L7,15H4a1,1,0,0,1-1-1V10A1,1,0,0,1,4,9H7Z" style="fill: #d79437; stroke-width:1.344;"/>
<path id="primary" d="M18.36,5.64a9,9,0,0,1,0,12.72" style="fill: none; stroke: #87470A; stroke-linecap: round; stroke-linejoin: round; stroke-width:1.344;"/>
<path id="primary-2" data-name="primary" d="M15.54,8.46a5,5,0,0,1,0,7.08" style="fill: none; stroke: #87470A; stroke-linecap: round; stroke-linejoin: round; stroke-width:1.344;"/>
<path id="primary-3" data-name="primary" d="M11,5V19L7,15H4a1,1,0,0,1-1-1V10A1,1,0,0,1,4,9H7Z" style="fill: none; stroke: #87470A; stroke-linecap: round; stroke-linejoin: round; stroke-width:1.344;"/>
</g>
</svg>