<!DOCTYPE svg PUBLIC "-//W3C//DTD SVG 1.1//EN" "http://www.w3.org/Graphics/SVG/1.1/DTD/svg11.dtd">
<!-- Uploaded to: SVG Repo, www.svgrepo.com, Transformed by: SVG Repo Mixer Tools -->
<svg height="800px" width="800px" version="1.1" id="Layer_1" xmlns="http://www.w3.org/2000/svg" xmlns:xlink="http://www.w3.org/1999/xlink" viewBox="0 0 512 512" xml:space="preserve" fill="#7F4F0A" stroke="#7F4F0A">
<g id="SVGRepo_bgCarrier" stroke-width="0"/>
<g id="SVGRepo_tracerCarrier" stroke-linecap="round" stroke-linejoin="round"/>
<g id="SVGRepo_iconCarrier"> <path style="fill:#d794376E7478;" d="M256,203.878c28.771,0,52.122,23.351,52.122,52.122S284.771,308.122,256,308.122 S203.878,284.771,203.878,256S227.229,203.878,256,203.878z"/> <g> <polygon style="fill:#d79437;" points="349.82,340.438 256,496.804 162.18,340.438 "/> <polygon style="fill:#d79437;" points="256,15.196 349.82,171.562 162.18,171.562 "/> </g> <path d="M363.628,179.38H148.372L256,0L363.628,179.38z M175.988,163.744h160.023L256,30.391L175.988,163.744z"/> <path d="M256,512L148.372,332.62h215.256L256,512z M175.988,348.256L256,481.609l80.012-133.352H175.988z"/> <path d="M256,315.94c-33.052,0-59.94-26.889-59.94-59.94s26.889-59.94,59.94-59.94s59.94,26.889,59.94,59.94 S289.052,315.94,256,315.94z M256,211.696c-24.43,0-44.304,19.874-44.304,44.304S231.57,300.304,256,300.304 S300.304,280.43,300.304,256S280.43,211.696,256,211.696z"/> </g>
</svg>